<svg width="30" height="26" viewBox="0 0 30 26" fill="none" xmlns="http://www.w3.org/2000/svg">
<path d="M9.92821 20.5L27.4241 20.5C27.4006 21.6337 27.1111 22.3643 26.6542 22.8575C26.1697 23.3805 25.4289 23.7113 24.3827 23.9003C23.3364 24.0894 22.0479 24.1261 20.5288 24.1122C19.9267 24.1066 19.2825 24.093 18.6062 24.0787C17.6053 24.0574 16.5341 24.0347 15.4256 24.0347C14.6316 24.0347 13.8627 24.0421 13.1184 24.0493C12.0958 24.0591 11.1196 24.0685 10.1883 24.0577C8.58678 24.039 7.17963 23.9599 6.01467 23.7276C4.8467 23.4947 3.97764 23.1181 3.40093 22.5475C2.92153 22.0732 2.60402 21.4247 2.52141 20.5H2.56333L4.1629 20.5L9.92821 20.5Z" stroke="white"/>
<path d="M23.5 14.5H26.75C27.9926 14.5 29 15.5074 29 16.75V16.75C29 17.9926 27.9926 19 26.75 19H3.25C2.00736 19 1 17.9926 1 16.75V16.75C1 15.5074 2.00736 14.5 3.25 14.5H15.5H19.5" stroke="white"/>
<path d="M29 13C29 13.2761 28.7761 13.5 28.5 13.5H28V12.5H28.5C28.7761 12.5 29 12.7239 29 13V13Z" fill="white"/>
<path d="M2 13C3.95496 13 5.49998 13 5.5 13C5.5 13 5.5 13 5.5 13L15 13H18L21.5 17.5L24.5 13L28 13" stroke="white"/>
<path d="M1 13C1 12.7239 1.22386 12.5 1.5 12.5H2V13.5H1.5C1.22386 13.5 1 13.2761 1 13V13Z" fill="white"/>
<path d="M27.5 8.64659C27.5 9.54383 27.1764 10.1144 26.6079 10.5166C26.002 10.9453 25.0766 11.211 23.8305 11.3547C22.5945 11.4973 21.1097 11.5135 19.4313 11.4925C18.8354 11.485 18.2139 11.4728 17.5725 11.4602C16.4215 11.4375 15.2063 11.4136 13.96 11.4136C12.6913 11.4136 11.484 11.4384 10.3631 11.4614C9.7689 11.4735 9.19901 11.4852 8.65707 11.4925C7.079 11.5135 5.7329 11.4971 4.6362 11.3556C3.53126 11.213 2.75235 10.9514 2.25281 10.5392C1.79488 10.1613 1.5152 9.60891 1.5006 8.72043C2.61584 5.18491 6.44031 1.5 13.96 1.5C17.7692 1.5 21.1936 2.35003 23.6481 3.69077C26.1227 5.04251 27.5 6.82122 27.5 8.64659Z" stroke="white"/>
<path d="M9.63324 5.45942L9.63324 4.6713C9.63324 4.41389 9.84191 4.20522 10.0993 4.20522C10.3567 4.20522 10.5654 4.41389 10.5654 4.6713L10.5654 5.26239L10.5654 5.45942C10.5654 5.71683 10.3567 5.9255 10.0993 5.9255C9.84191 5.9255 9.63324 5.71683 9.63324 5.45942Z" fill="white" stroke="white" stroke-width="0.25"/>
<path d="M9.61869 8.24733L10.1773 7.69143C10.3598 7.50986 10.6549 7.51059 10.8365 7.69306C11.0181 7.87552 11.0173 8.17063 10.8349 8.3522L10.4159 8.76912L10.2762 8.9081C10.0937 9.08967 9.79864 9.08894 9.61707 8.90647C9.4355 8.72401 9.43623 8.4289 9.61869 8.24733Z" fill="white" stroke="white" stroke-width="0.25"/>
<path d="M6.43806 7.56704L6.43806 6.77892C6.43806 6.52151 6.64674 6.31284 6.90415 6.31284C7.16156 6.31284 7.37023 6.52151 7.37023 6.77892L7.37023 7.37001L7.37023 7.56704C7.37023 7.82445 7.16156 8.03312 6.90415 8.03312C6.64674 8.03312 6.43806 7.82445 6.43806 7.56704Z" fill="white" stroke="white" stroke-width="0.25"/>
</svg>
