<?xml version="1.0" encoding="utf-8"?>
<!-- Generator: Adobe Illustrator 16.0.0, SVG Export Plug-In . SVG Version: 6.00 Build 0)  -->
<!DOCTYPE svg PUBLIC "-//W3C//DTD SVG 1.1//EN" "http://www.w3.org/Graphics/SVG/1.1/DTD/svg11.dtd">
<svg version="1.1" id="Layer_2" xmlns="http://www.w3.org/2000/svg" xmlns:xlink="http://www.w3.org/1999/xlink" x="0px" y="0px"
	 width="80px" height="100px" viewBox="0 0 80 100" enable-background="new 0 0 80 100" xml:space="preserve">
<path fill="#757576" d="M34.164,14.225c0.664,0.241,1.297,0.53,1.887,0.873c0.715,0.395,1.373,0.859,1.968,1.376l-3.471,21.104
	c-2.138,0.856-4.525,1.132-6.898,0.686c-0.01,0.357-0.006,0.72,0.003,1.069c0.013,0.711,0.038,1.428,0.092,2.132
	c0.059,0.811,0.14,1.623,0.263,2.427c0.127,0.934,0.289,1.873,0.498,2.791c0.062,0.347,0.143,0.684,0.237,1.027
	c1.449,5.911,4.332,11.419,8.403,15.996c0.686,0.783,1.413,1.536,2.173,2.264c0.436,0.413,0.881,0.823,1.34,1.216
	c0.264,0.23,0.539,0.467,0.818,0.688c1.15-2.05,2.84-3.679,4.811-4.776l18.496,9.558c0.135,1.185,0.09,2.409-0.135,3.629
	c-0.117,0.673-0.301,1.343-0.541,2.008c-2.355,6.487-9.521,9.837-16.018,7.485C22.137,76.35,8.732,47.668,18.156,21.706
	C20.51,15.219,27.676,11.869,34.164,14.225z"/>
</svg>
